<svg xmlns="http://www.w3.org/2000/svg" width="358.89" height="56" viewBox="0 0 358.89 56"><title>Microsoft Bing logo - Brandlogos.net</title><path d="M359,484H332.55v26.48H359Z" transform="translate(-332.55 -484)" style="fill:#f26522"/><path d="M388.27,484H361.79v26.48h26.48Z" transform="translate(-332.55 -484)" style="fill:#8dc63f"/><path d="M359,513.23H332.55v26.48H359Z" transform="translate(-332.55 -484)" style="fill:#00aeef"/><path d="M388.27,513.23H361.79v26.48h26.48Z" transform="translate(-332.55 -484)" style="fill:#ffc20e"/><path d="M441.16,495.13v33.43h-5.79v-26.2h-.12l-10.34,26.2h-3.85l-10.66-26.2h-.07v26.2H405V495.13h8.33l9.59,24.78H423l10.15-24.78Zm4.85,2.57a3.11,3.11,0,0,1,1-2.36,3.49,3.49,0,0,1,5.86,2.33h0a3,3,0,0,1-1,2.33,3.52,3.52,0,0,1-2.45.93,3.38,3.38,0,0,1-2.43-1,3,3,0,0,1-1-2.31Zm6.23,6.91v24H446.6v-24Zm17.13,19.86a8,8,0,0,0,2.75-.56,11.61,11.61,0,0,0,2.8-1.54v5.23a10.26,10.26,0,0,1-3,1.17,16.8,16.8,0,0,1-3.78.4,11.32,11.32,0,0,1-11.9-11.88,13.62,13.62,0,0,1,3.38-9.52c2.24-2.5,5.44-3.73,9.57-3.73a13.11,13.11,0,0,1,5.79,1.35v5.39a11.67,11.67,0,0,0-2.66-1.47,7.75,7.75,0,0,0-2.8-.54,7,7,0,0,0-5.37,2.17,8.27,8.27,0,0,0-2.08,5.86,7.84,7.84,0,0,0,2,5.67,7.11,7.11,0,0,0,5.37,2ZM491,504.2a5.93,5.93,0,0,1,2.12.33v5.72a6,6,0,0,0-3.36-.93,4.33,4.33,0,0,0-3.5,1.77,8.52,8.52,0,0,0-1.45,5.37v12.13h-5.65v-24h5.65v3.78h.09a6.61,6.61,0,0,1,2.33-3.06,6.26,6.26,0,0,1,3.73-1.12Zm2.43,12.74c0-4,1.12-7.12,3.36-9.43s5.37-3.48,9.33-3.48c3.73,0,6.65,1.12,8.77,3.34s3.15,5.25,3.15,9.05-1.12,7-3.36,9.26a12.18,12.18,0,0,1-9.15,3.45,11.28,11.28,0,0,1-12.11-12.2Zm5.88-.19a8.56,8.56,0,0,0,1.7,5.74,6,6,0,0,0,4.88,2,5.7,5.7,0,0,0,4.67-2,9.15,9.15,0,0,0,1.63-5.88c0-2.57-.56-4.53-1.68-5.83a5.79,5.79,0,0,0-4.67-2,5.94,5.94,0,0,0-4.81,2.05A9,9,0,0,0,499.31,516.76Zm27.14-5.86a2.37,2.37,0,0,0,.77,1.91,12.74,12.74,0,0,0,3.41,1.73,11.76,11.76,0,0,1,4.74,3,6.35,6.35,0,0,1,1.35,4.11,6.62,6.62,0,0,1-2.59,5.44,11,11,0,0,1-7,2.05,16.92,16.92,0,0,1-6.37-1.31v-5.53A14.35,14.35,0,0,0,524,524a9.68,9.68,0,0,0,3.22.63,5.8,5.8,0,0,0,2.82-.54,1.93,1.93,0,0,0,.91-1.8,2.56,2.56,0,0,0-.93-2,14.66,14.66,0,0,0-3.59-1.87,11.07,11.07,0,0,1-4.43-2.94,6.3,6.3,0,0,1-1.31-4.13,6.59,6.59,0,0,1,2.57-5.34A10.35,10.35,0,0,1,530,504a16.47,16.47,0,0,1,5.44,1v5.37a12.42,12.42,0,0,0-2.61-1.31,8.73,8.73,0,0,0-3-.54,4.42,4.42,0,0,0-2.5.63,2,2,0,0,0-.93,1.75Zm12.69,6c0-4,1.12-7.12,3.36-9.43a12.37,12.37,0,0,1,9.33-3.48c3.73,0,6.67,1.12,8.77,3.34s3.15,5.25,3.15,9.05-1.12,7-3.36,9.26a12.18,12.18,0,0,1-9.12,3.45,11.28,11.28,0,0,1-12.13-12.2Zm5.88-.19a8.56,8.56,0,0,0,1.7,5.74,6.06,6.06,0,0,0,4.9,2,5.7,5.7,0,0,0,4.67-2,9.15,9.15,0,0,0,1.63-5.88,8.92,8.92,0,0,0-1.68-5.83,5.79,5.79,0,0,0-4.67-2,6,6,0,0,0-4.83,2.05A8.87,8.87,0,0,0,545,516.76Zm37.47-7.54h-8.4v19.37h-5.72V509.22h-4V504.6h4v-3.34a8.31,8.31,0,0,1,8-8.62q.38,0,.76,0a13.49,13.49,0,0,1,1.82.12,6.88,6.88,0,0,1,1.4.33V498a5.65,5.65,0,0,0-2.57-.63,3.52,3.52,0,0,0-2.75,1.1,4.92,4.92,0,0,0-.93,3.27v2.92h8.4v-5.39l5.65-1.73v7.12h5.74v4.6h-5.72v11.2a4.77,4.77,0,0,0,.82,3.15,3.2,3.2,0,0,0,2.52.91,5.48,5.48,0,0,0,2.38-.79v4.67a5.84,5.84,0,0,1-1.77.56,12.68,12.68,0,0,1-2.47.23,7,7,0,0,1-5.34-1.87,8.24,8.24,0,0,1-1.77-5.74V509.22Z" transform="translate(-332.55 -484)" style="fill:#737373"/><path d="M606.71,528.89V495.83h10.5a12.42,12.42,0,0,1,7.61,2.1,6.52,6.52,0,0,1,2.8,5.46,8,8,0,0,1-1.59,4.9,8.59,8.59,0,0,1-4.41,2.94v.09a8.41,8.41,0,0,1,5.44,2.54,7.58,7.58,0,0,1,2.05,5.53,8.31,8.31,0,0,1-3.34,6.86,13.37,13.37,0,0,1-8.45,2.64Zm5.48-28.65v9.4h3.55a7,7,0,0,0,4.48-1.33,4.73,4.73,0,0,0,1.63-3.83c0-2.85-1.89-4.25-5.67-4.25Zm0,13.81V524.5h4.67a7.13,7.13,0,0,0,4.74-1.4,4.88,4.88,0,0,0,1.68-3.92c0-3.43-2.36-5.13-7.12-5.13Zm23.61-13.72a3.24,3.24,0,0,1-2.24-.86,2.76,2.76,0,0,1-.93-2.17,2.84,2.84,0,0,1,.93-2.19,3.19,3.19,0,0,1,2.26-.86,3.25,3.25,0,0,1,2.29.86,3,3,0,0,1,0,4.34,3.28,3.28,0,0,1-2.31.89Zm2.66,28.56h-5.34V505.28h5.37Zm26.48,0H659.6v-13.3c0-4.43-1.56-6.63-4.67-6.63a5.16,5.16,0,0,0-4.06,1.87,6.77,6.77,0,0,0-1.59,4.6v13.46h-5.37V505.28h5.37v3.92h.09a8.4,8.4,0,0,1,7.65-4.48,7.11,7.11,0,0,1,5.88,2.52c1.35,1.66,2,4.06,2,7.23ZM691.42,527c0,8.66-4.34,13-13.07,13a19.48,19.48,0,0,1-8-1.54v-4.9a14.68,14.68,0,0,0,7.35,2.22c5.6,0,8.42-2.75,8.42-8.28v-2.57H686a9.31,9.31,0,0,1-14.93,1.38,12.81,12.81,0,0,1-2.64-8.47c0-4,.93-7.19,2.85-9.57a9.41,9.41,0,0,1,7.79-3.55,7.54,7.54,0,0,1,6.93,3.83h.09v-3.27h5.37Zm-5.3-8.91V515a6,6,0,0,0-1.66-4.25,5.37,5.37,0,0,0-4.11-1.77,5.68,5.68,0,0,0-4.76,2.26,10.13,10.13,0,0,0-1.73,6.28,8.9,8.9,0,0,0,1.63,5.58,5.31,5.31,0,0,0,4.39,2.08,5.7,5.7,0,0,0,4.5-2,7.51,7.51,0,0,0,1.73-5.13Z" transform="translate(-332.55 -484)" style="fill:#737373"/></svg>