<svg id="Layer_1" data-name="Layer 1" xmlns="http://www.w3.org/2000/svg" viewBox="0 0 648 110.43"><title>Telkomsel logo - Brandlogos.net</title><path d="M354.09,421.44c-11.78,0-19.69-8.82-19.69-21.94s7.91-21.94,19.69-21.94,19.69,8.82,19.69,21.94-7.91,21.94-19.69,21.94m0-61.66c-23.27,0-40.17,16.7-40.17,39.71s16.89,39.71,40.17,39.71,40.17-16.7,40.17-39.71-16.89-39.71-40.17-39.71" transform="translate(-60 -328.78)" style="fill:#ec1846"/><path d="M281.14,399.94a.52.52,0,0,1,0-1,20.34,20.34,0,0,0,10.35-7L316.65,361h-23.3l-28.18,34.59V328.78H244.7V438h20.48V402.69l24.27,28.36c4.16,4.82,8.63,7,15.21,7h14.85l-27.64-31.93a19,19,0,0,0-10.73-6.14" transform="translate(-60 -328.78)" style="fill:#ec1846"/><path d="M494.28,359.79c-12.43,0-20.57,6.67-24.65,13.34-3.89-8.74-11.74-13.34-23.36-13.34-9.69,0-16.78,4.27-19.54,10.32-.4.88-1.1,1.09-1.4-.19a11.72,11.72,0,0,0-11.5-8.94H405.2v77h20.46V398.9c0-13.34,5.5-21.64,15.06-21.64,8.12,0,12.49,5.1,12.49,14V438h20.46V398.75c0-13.25,5.44-21.49,14.91-21.49,8.2,0,12.8,5.23,12.8,14V438h20.46V386c0-15.43-11.24-26.21-27.56-26.21" transform="translate(-60 -328.78)" style="fill:#ec1846"/><path d="M230.07,340.62a11.84,11.84,0,0,0-11.84-11.84h-8.62V423.9c0,10.89,6.9,15.32,14.62,15.32a23.15,23.15,0,0,0,9.57-2.11c-3.08-4.57-3.74-11.06-3.74-16.87Z" transform="translate(-60 -328.78)" style="fill:#ec1846"/><path d="M111.64,352.74a20.54,20.54,0,0,0-20.46-20.38H71.84A11.84,11.84,0,0,0,60,344.2v9.36H90.74v70.35c0,10.9,7.13,15.31,14.85,15.31a24.15,24.15,0,0,0,9.79-2.11c-3.08-4.57-3.74-11.06-3.74-16.87Z" transform="translate(-60 -328.78)" style="fill:#ec1846"/><path d="M142.37,349v-16.6H105.19a.53.53,0,0,0-.27,1c5.69,3.16,9.3,9,10.42,15.67a5.14,5.14,0,0,0,5.35,4.57h17.06a4.62,4.62,0,0,0,4.62-4.62" transform="translate(-60 -328.78)" style="fill:#ec1846"/><path d="M566.9,391c-10.16-2.69-13.82-4.89-13.82-8.33,0-4.55,3.74-7.14,11.58-7.14,8.82,0,17.77,3,23.22,7V365.84c-5.73-3.71-15-6.06-23.92-6.06-18.88,0-30.51,9.91-30.51,23.55s11.63,19.49,24.08,22.93c10.36,3,15.48,4.72,15.48,9.3,0,5-4,7.83-12.68,7.83a39.38,39.38,0,0,1-26.3-9.91v18c6.85,4.82,16.37,7.71,27.14,7.71,19.87,0,31.48-9.5,31.48-24.09,0-15.69-13.43-21-25.74-24.17" transform="translate(-60 -328.78)" style="fill:#ec1846"/><path d="M145.14,391.28c1.59-9.47,8.76-16.17,17.72-16.17,8.49,0,14.92,5.59,15.81,16.17ZM163,359.79c-21,0-38.19,15.73-38.19,40,0,23.19,15.53,39.4,41.55,39.4a50.48,50.48,0,0,0,26.72-7.46V414.29c-7.55,5.25-15.94,8.29-24.48,8.29-12.73,0-21.48-5.36-24.14-17.22h53.41a63,63,0,0,0,.56-7.19c0-25.12-16.27-38.38-35.43-38.38" transform="translate(-60 -328.78)" style="fill:#ec1846"/><path d="M619.33,391.28c1.59-9.47,8.76-16.17,17.72-16.17,8.49,0,14.92,5.59,15.81,16.17Zm17.86-31.49c-21,0-38.19,15.73-38.19,40,0,23.19,15.53,39.4,41.55,39.4a50.48,50.48,0,0,0,26.72-7.46V414.29c-7.55,5.25-15.94,8.29-24.48,8.29-12.73,0-21.48-5.36-24.14-17.22h53.41a63,63,0,0,0,.56-7.19c0-25.12-16.27-38.38-35.43-38.38" transform="translate(-60 -328.78)" style="fill:#ec1846"/><path d="M704.26,420.24V340.62a11.84,11.84,0,0,0-11.84-11.84H683.8v95.12c0,10.89,6.9,15.31,14.62,15.31a23.15,23.15,0,0,0,9.57-2.11c-3.08-4.57-3.74-11.06-3.74-16.87" transform="translate(-60 -328.78)" style="fill:#ec1846"/></svg>